<?xml version="1.0" encoding="utf-8"?>
<!-- Generator: Adobe Illustrator 24.0.1, SVG Export Plug-In . SVG Version: 6.00 Build 0)  -->
<svg version="1.1" id="Camada_1" xmlns="http://www.w3.org/2000/svg" xmlns:xlink="http://www.w3.org/1999/xlink" x="0px" y="0px"
	 viewBox="0 0 320.93 274.93" style="enable-background:new 0 0 320.93 274.93;" xml:space="preserve">
<style type="text/css">
	.st0{fill:#00A204;}
	.st1{fill:#FFFFFF;}
</style>
<g>
	<ellipse class="st0" cx="160.62" cy="137.68" rx="151.38" ry="128.32"/>
	<g>
		<path d="M160.62,18.36C239.13,18.36,303,71.89,303,137.68S239.13,257,160.62,257S18.23,203.47,18.23,137.68
			S82.1,18.36,160.62,18.36 M160.62,0.36C72.04,0.36,0.23,61.84,0.23,137.68S72.04,275,160.62,275C249.19,275,321,213.52,321,137.68
			S249.19,0.36,160.62,0.36L160.62,0.36z"/>
	</g>
</g>
<g>
	<g>
		<path class="st1" d="M89.08,205.43c15.84,8.14,32.39,15.08,49.3,20.7c3.89,1.29,7.81,2.67,11.78,3.66
			c1.21,0.3,2.46,0.41,3.69,0.57c1.21,0.16,2.28,0.39,3.46,0.34c1.79-0.09,3.87-0.33,5.61-0.81c1.14-0.31,3.43-1.34,4.5-1.88
			c0.98-0.5,1.39-0.92,2.47-1.76c0.82-0.63,1.75-1.24,2.47-2c1.2-1.27,2.4-2.85,3.34-4.35c0.45-0.72,0.78-1.52,1.13-2.29
			c3.99-8.78,7.5-17.76,10.83-26.81c3.19-8.66,6.28-17.35,9.86-25.85c-0.6,1.43-1.21,2.87-1.81,4.3
			c5.45-12.85,12.27-24.92,20.8-35.98c-0.94,1.21-1.88,2.43-2.81,3.64c8.79-11.33,19.06-21.45,30.4-30.22
			c-1.21,0.94-2.43,1.88-3.64,2.81c3.02-2.33,6.11-4.55,9.27-6.69c3.91-2.64,6.99-6.1,8.27-10.76c0.75-2.39,0.86-4.79,0.32-7.18
			c-0.11-2.4-0.82-4.63-2.14-6.69c-2.48-3.84-6.17-7.23-10.76-8.27c-4.55-1.04-9.87-0.89-13.87,1.81
			c-16.07,10.86-30.85,23.78-42.82,39.08c-6.24,7.97-12.06,16.16-16.89,25.07c-5.38,9.95-9.65,20.5-13.64,31.07
			c-3.97,10.5-7.6,21.13-11.96,31.48c0.6-1.43,1.21-2.87,1.81-4.3c-0.63,1.49-1.28,2.98-1.94,4.46c-0.57,1.26-1.08,2.6-1.92,3.71
			c0.94-1.21,1.88-2.43,2.81-3.64c-0.24,0.28-0.48,0.5-0.77,0.72c1.21-0.94,2.43-1.88,3.64-2.81c-0.2,0.14-0.42,0.26-0.64,0.35
			c1.43-0.6,2.87-1.21,4.3-1.81c-0.26,0.1-0.53,0.17-0.81,0.21c1.6-0.21,3.19-0.43,4.79-0.64c-0.44,0.04-0.84,0.04-1.28,0
			c1.6,0.21,3.19,0.43,4.79,0.64c-3.14-0.45-6.29-1.71-9.3-2.68c-3.11-0.99-6.21-2.03-9.3-3.12c-6.14-2.16-12.2-4.52-18.2-7.04
			c1.43,0.6,2.87,1.21,4.3,1.81c-7.21-3.06-14.31-6.37-21.28-9.95c-4.3-2.21-9.12-3.12-13.87-1.81c-2.34,0.56-4.38,1.63-6.12,3.22
			c-1.96,1.27-3.5,2.95-4.64,5.05c-2.21,4.18-3.31,9.24-1.81,13.87C82.21,199,84.91,203.29,89.08,205.43L89.08,205.43z"/>
	</g>
</g>
</svg>
