<?xml version="1.0" encoding="utf-8"?>
<!-- Generator: Adobe Illustrator 24.0.1, SVG Export Plug-In . SVG Version: 6.00 Build 0)  -->
<svg version="1.1" id="Camada_1" xmlns="http://www.w3.org/2000/svg" xmlns:xlink="http://www.w3.org/1999/xlink" x="0px" y="0px"
	 viewBox="0 0 296.4 262.2" style="enable-background:new 0 0 296.4 262.2;" xml:space="preserve">
<style type="text/css">
	.st0{fill:#FCA726;}
	.st1{fill:#81534F;}
	.st2{fill:#FECE4B;}
	.st3{opacity:0.35;fill:#451A7C;enable-background:new    ;}
	.st4{fill:#FFFFFF;}
</style>
<g>
	<path class="st0" d="M151.91,182.52l80.28-24.97c0,0-46.86-14.61-80.28-24.97L118.3,56.86c0,0-21.06,47.46-33.61,75.72L4.48,157.55
		l80.28,24.97l33.61,75.72L151.91,182.52z"/>
	<path class="st1" d="M118.3,262.2c-1.86,0-3.52-1.02-4.16-2.55L81.3,185.64L3.01,161.28C1.22,160.72,0,159.25,0,157.55
		c0-1.7,1.22-3.17,3.01-3.74l78.29-24.35l32.84-74.02c0.7-1.53,2.3-2.49,4.16-2.49c1.86,0,3.52,1.02,4.16,2.49l32.84,74.02
		l78.29,24.35c1.79,0.57,3.01,2.04,3.01,3.74c0,1.7-1.22,3.17-3.01,3.74l-78.29,24.35l-32.84,74.02
		C121.82,261.18,120.16,262.2,118.3,262.2z M17.99,157.55l68.24,21.24c1.22,0.4,2.18,1.19,2.69,2.27l29.38,66.31l29.45-66.31
		c0.45-1.08,1.47-1.93,2.69-2.27l68.24-21.24l-68.24-21.24c-1.22-0.4-2.24-1.19-2.69-2.32L118.3,67.67l-29.38,66.31
		c-0.45,1.08-1.47,1.93-2.69,2.32L17.99,157.55z"/>
	<polygon class="st2" points="99.48,168.99 62.67,157.55 99.48,146.05 118.3,103.63 137.19,146.05 173.93,157.55 137.19,168.99 
		118.3,211.46 	"/>
	<path class="st0" d="M248.45,71.92l43.4-13.48c0,0-25.35-7.87-43.4-13.48L230.33,3.91c0,0-11.4,25.65-18.18,40.94l-43.4,13.48
		l43.4,13.48l18.18,40.94L248.45,71.92z"/>
	<path class="st1" d="M230.33,116.83c-1.86,0-3.52-1.02-4.16-2.49l-17.48-39.3l-41.42-12.91c-1.79-0.57-3.01-2.04-3.01-3.74
		c0-1.7,1.22-3.17,3.01-3.74l41.42-12.91l17.41-39.25c0.64-1.53,2.3-2.49,4.16-2.49c1.86,0,3.52,1.02,4.16,2.49l17.48,39.25
		l41.48,12.91c1.79,0.57,3.01,2.04,3.01,3.74c0,1.7-1.22,3.17-3.01,3.74l-41.48,12.91l-17.41,39.25
		C233.79,115.81,232.13,116.83,230.33,116.83z M182.26,58.39l31.37,9.8c1.22,0.4,2.24,1.25,2.69,2.32l14.02,31.54l14.02-31.54
		c0.45-1.08,1.47-1.93,2.69-2.32l31.37-9.8l-31.37-9.8c-1.22-0.4-2.24-1.25-2.69-2.32l-14.02-31.54l-14.02,31.54
		c-0.45,1.08-1.47,1.93-2.69,2.32L182.26,58.39z"/>
	<polygon class="st2" points="221.63,63.2 206.14,58.39 221.63,53.57 230.33,33.98 238.98,53.57 254.47,58.39 238.98,63.2 
		230.33,82.79 	"/>
	<path class="st3" d="M232.19,157.55l-80.28,24.97l-33.61,75.72l-33.61-75.72L4.48,157.55l26.44-8.21l47.44,14.78
		c6.66,2.04,11.91,6.57,14.47,12.35l25.48,57.48l25.48-57.48c2.56-5.78,7.87-10.31,14.47-12.35l47.44-14.78
		C221.05,154.09,232.19,157.55,232.19,157.55z"/>
	<path class="st3" d="M289.61,57.14l-41.8,13.03l-17.48,39.41l-17.48-39.41l-41.8-13.03l13.76-4.3l24.71,7.7
		c3.46,1.08,6.21,3.45,7.55,6.46l13.25,29.9l13.25-29.9c1.34-3,4.1-5.38,7.55-6.46l24.71-7.7
		C283.79,55.33,289.61,57.14,289.61,57.14z"/>
	<path class="st4" d="M139.49,138.63c-1.79,0-3.46-0.96-4.16-2.49l-0.77-1.7c-0.9-2.04,0.26-4.36,2.56-5.15
		c2.3-0.79,4.93,0.23,5.83,2.21l0.77,1.7c0.9,2.04-0.26,4.36-2.56,5.15C140.58,138.52,140.07,138.63,139.49,138.63z"/>
	<path class="st4" d="M134.05,126.4c-1.79,0-3.46-0.96-4.16-2.49l-15.75-35.34c-0.9-2.04,0.26-4.36,2.5-5.15
		c2.3-0.79,4.93,0.23,5.83,2.21l15.75,35.34c0.9,2.04-0.26,4.36-2.56,5.15C135.2,126.34,134.63,126.4,134.05,126.4z"/>
	<path class="st4" d="M238.72,50.68c-0.32,0-0.58,0-0.9-0.06c-0.26-0.06-0.58-0.11-0.83-0.23c-0.26-0.11-0.51-0.23-0.77-0.4
		c-0.26-0.17-0.45-0.34-0.7-0.51c-0.83-0.74-1.34-1.76-1.34-2.77c0-0.28,0-0.51,0.06-0.79c0.06-0.23,0.13-0.51,0.26-0.74
		c0.13-0.23,0.26-0.45,0.38-0.68c0.19-0.23,0.32-0.4,0.58-0.62c0.19-0.17,0.45-0.34,0.7-0.51c0.26-0.17,0.51-0.28,0.77-0.4
		c0.26-0.11,0.58-0.17,0.83-0.23c0.58-0.11,1.15-0.11,1.73,0c0.32,0.06,0.58,0.11,0.83,0.23c0.26,0.11,0.51,0.23,0.77,0.4
		c0.26,0.17,0.45,0.34,0.7,0.51c0.19,0.17,0.38,0.4,0.58,0.62s0.32,0.45,0.38,0.68c0.13,0.23,0.19,0.51,0.26,0.74
		c0.06,0.23,0.06,0.51,0.06,0.79c0,1.02-0.51,2.04-1.34,2.77c-0.19,0.17-0.45,0.34-0.7,0.51c-0.26,0.17-0.51,0.28-0.77,0.4
		s-0.58,0.17-0.83,0.23C239.3,50.68,239.04,50.68,238.72,50.68z"/>
	<path class="st4" d="M234.56,41.34c-1.79,0-3.46-0.96-4.16-2.49l-3.78-8.44c-0.9-2.04,0.26-4.36,2.56-5.15s4.93,0.17,5.83,2.27
		l3.78,8.44c0.9,2.04-0.26,4.36-2.56,5.15C235.65,41.23,235.07,41.34,234.56,41.34z"/>
</g>
</svg>
