<?xml version="1.0" encoding="utf-8"?>
<!-- Generator: Adobe Illustrator 24.0.1, SVG Export Plug-In . SVG Version: 6.00 Build 0)  -->
<svg version="1.1" id="Camada_1" xmlns="http://www.w3.org/2000/svg" xmlns:xlink="http://www.w3.org/1999/xlink" x="0px" y="0px"
	 viewBox="0 0 572 543.6" style="enable-background:new 0 0 572 543.6;" xml:space="preserve">
<style type="text/css">
	.st0{fill-rule:evenodd;clip-rule:evenodd;fill:#BE1E2D;stroke:#000000;stroke-width:32;stroke-miterlimit:10;}
</style>
<g id="Layer_1">
	<g>
		<path class="st0" d="M276.2,61.5c10.7,104.6-50.8,148.3-68.1,158.4c0.1,1.1,0.2,2.2,0.2,3.4v149.3l28.7,15.8h150.7
			c0.3,0,0.6,0,0.9,0.1l0,0c34.7,4.7,36.1-36.3,36.1-41.4c-0.2-2.6,1.2-5.2,3.7-6.3l0,0c21.8-9.3,12.5-38.7,11.7-41.2
			c-1.1-3,0.2-6.3,3.1-7.8l0,0c28.2-13.7,10.5-38.3,8.1-41.4c-1.9-2-2.2-5.1-0.6-7.6l0,0c51.1-78.4-108.6-59-118.8-57.7
			c-0.8,0.2-1.6,0.2-2.5,0c-3.4-0.7-5.5-3.9-4.9-7.3l0,0C348.3,57.1,293.3,58.3,276.2,61.5z"/>
		<path class="st0" d="M198,374.3V223.2c0-3.6-1.5-6.8-3.8-9.2s-5.6-3.8-9.2-3.8h-79.9c-3.6,0-6.8,1.5-9.2,3.8s-3.8,5.6-3.8,9.2
			v151.1c0,3.6,1.5,6.8,3.8,9.2c2.4,2.4,5.6,3.8,9.2,3.8H185c3.6,0,6.8-1.5,9.2-3.8c1.9-1.9,3.3-4.5,3.7-7.3c0-0.5,0-0.9,0.1-1.4
			C198,374.7,198,374.5,198,374.3z"/>
	</g>
</g>
<g id="Master_Layer_5">
</g>
</svg>
