<?xml version="1.0" encoding="utf-8"?>
<!-- Generator: Adobe Illustrator 24.0.1, SVG Export Plug-In . SVG Version: 6.00 Build 0)  -->
<svg version="1.1" id="Camada_1" xmlns="http://www.w3.org/2000/svg" xmlns:xlink="http://www.w3.org/1999/xlink" x="0px" y="0px"
	 viewBox="0 0 422.93 373.93" style="enable-background:new 0 0 422.93 373.93;" xml:space="preserve">
<style type="text/css">
	.st0{fill:#ED1C24;}
	.st1{fill:#FFFFFF;}
</style>
<g>
	<ellipse class="st0" cx="211.45" cy="187.12" rx="199.56" ry="175.12"/>
	<path d="M211.45,24C314.86,24,399,97.17,399,187.12s-84.14,163.12-187.55,163.12S23.89,277.06,23.89,187.12S108.03,24,211.45,24
		 M211.45,0C94.61,0-0.11,83.77-0.11,187.12c0,103.34,94.72,187.12,211.55,187.12S423,290.46,423,187.12
		C423,83.77,328.28,0,211.45,0L211.45,0z"/>
</g>
<g>
	<g>
		<path class="st1" d="M131.53,294.72c14.69-10,29.38-19.99,43.7-30.51c14.38-10.55,28.46-21.53,42.15-32.95
			c12.5-10.42,24.67-21.24,36.48-32.44c11.66-11.06,22.98-22.49,33.9-34.27c10.89-11.75,21.4-23.85,31.5-36.29
			c1.24-1.53,2.47-3.06,3.7-4.6c1.9-1.77,3.25-3.86,4.03-6.28c1.22-2.32,1.78-4.83,1.68-7.51c0.1-2.68-0.46-5.19-1.68-7.51
			c-0.79-2.42-2.13-4.51-4.03-6.28c-3.72-3.41-8.6-5.94-13.79-5.71c-1.73,0.23-3.46,0.46-5.18,0.7c-3.3,0.93-6.17,2.6-8.6,5.01
			c-14.48,18.14-29.83,35.57-45.97,52.25c-16.32,16.87-33.43,32.97-51.25,48.26c-10.09,8.66-20.41,17.06-30.92,25.19
			c1.32-1.02,2.63-2.03,3.95-3.05c-14.84,11.46-30.13,22.3-45.59,32.9c-4.58,3.14-9.17,6.26-13.76,9.39
			c-2.27,1.23-4.1,2.9-5.47,5.02c-1.72,1.88-2.89,4.09-3.49,6.63c-0.81,2.59-0.93,5.18-0.35,7.78c0.12,2.6,0.89,5.01,2.31,7.25
			c2.68,4.16,6.68,7.83,11.65,8.96C121.42,297.81,127.21,297.66,131.53,294.72L131.53,294.72z"/>
	</g>
</g>
<g>
	<g>
		<path class="st1" d="M319.02,257.35c-15.87-10.8-31.73-21.61-47.15-33.05c-4.1-3.04-8.16-6.12-12.2-9.24
			c1.32,1.02,2.63,2.03,3.95,3.05c-18.69-14.45-36.73-29.74-54.02-45.84c-17.09-15.92-33.46-32.62-48.99-50.06
			c-8.64-9.71-17.02-19.65-25.14-29.81c-1.77-1.9-3.86-3.25-6.28-4.03c-2.32-1.22-4.83-1.78-7.51-1.68
			c-2.68-0.1-5.19,0.46-7.51,1.68c-2.42,0.79-4.51,2.13-6.28,4.03c-3.41,3.72-5.94,8.6-5.71,13.79c0.23,1.73,0.46,3.46,0.7,5.18
			c0.93,3.3,2.6,6.17,5.01,8.6c9.99,12.51,20.39,24.68,31.17,36.51c10.82,11.86,22.03,23.37,33.6,34.51
			c11.71,11.28,23.78,22.18,36.18,32.69c13.6,11.52,27.6,22.56,41.88,33.22c14.1,10.52,28.59,20.5,43.13,30.4
			c1.82,1.24,3.64,2.48,5.47,3.72c2.24,1.42,4.65,2.2,7.25,2.31c2.59,0.58,5.18,0.46,7.78-0.35c2.54-0.6,4.75-1.77,6.63-3.49
			c2.12-1.37,3.8-3.2,5.02-5.47c2.39-4.53,3.59-10.01,1.97-15.03c-0.66-1.55-1.31-3.11-1.97-4.66
			C324.28,261.41,321.95,259.08,319.02,257.35L319.02,257.35z"/>
	</g>
</g>
</svg>
